#define 8cde3676619e4b12f71aaa08029a8266_width 32
#define 8cde3676619e4b12f71aaa08029a8266_height 32
static char 8cde3676619e4b12f71aaa08029a8266_bits[] = {
  0x00, 0x00, 0x00, 0x00, 0x00, 0x00, 0x00, 0x7C, 0x00, 0x00, 0x80, 0x7F, 
  0x00, 0x00, 0xE0, 0x7F, 0x00, 0x00, 0x18, 0x7E, 0x00, 0x00, 0x0C, 0x7C, 
  0x00, 0x00, 0x03, 0x38, 0x00, 0x80, 0x01, 0x30, 0x00, 0xC0, 0x30, 0x30, 
  0x00, 0x40, 0x58, 0x10, 0x00, 0x20, 0x88, 0x10, 0x00, 0x10, 0xC8, 0x08, 
  0x00, 0x1B, 0x78, 0x0C, 0xE0, 0x8F, 0x01, 0x04, 0xF8, 0x47, 0x02, 0x02, 
  0xFC, 0x47, 0x04, 0x01, 0xC0, 0x43, 0x84, 0x01, 0x80, 0x83, 0xC3, 0x00, 
  0x00, 0x01, 0x20, 0x00, 0x00, 0x01, 0x18, 0x00, 0x00, 0x01, 0x0C, 0x00, 
  0x80, 0x01, 0x07, 0x00, 0x80, 0xC3, 0x0F, 0x00, 0xC0, 0xFF, 0x0F, 0x00, 
  0x18, 0xC7, 0x07, 0x00, 0x18, 0x81, 0x07, 0x00, 0x38, 0x00, 0x07, 0x00, 
  0xF8, 0x00, 0x03, 0x00, 0xF8, 0x00, 0x03, 0x00, 0x00, 0x00, 0x01, 0x00, 
  0x00, 0x00, 0x00, 0x00, 0x00, 0x00, 0x00, 0x00, };
